inDegrees=yes
name=ik_S42_A04_T02
DataType=double
version=3
OpenSimVersion=4.3-2021-08-27-4bc7ad9
endheader
time	pelvis_tilt	pelvis_list	pelvis_rotation	pelvis_tx	pelvis_ty	pelvis_tz	hip_flexion_r	hip_adduction_r	hip_rotation_r	knee_angle_r	knee_angle_r_beta	ankle_angle_r	subtalar_angle_r	mtp_angle_r	hip_flexion_l	hip_adduction_l	hip_rotation_l	knee_angle_l	knee_angle_l_beta	ankle_angle_l	subtalar_angle_l	mtp_angle_l	lumbar_extension	lumbar_bending	lumbar_rotation	arm_flex_r	arm_add_r	arm_rot_r	elbow_flex_r	pro_sup_r	wrist_flex_r	wrist_dev_r	arm_flex_l	arm_add_l	arm_rot_l	elbow_flex_l	pro_sup_l	wrist_flex_l	wrist_dev_l
18.3399999999997	23.71935829189824	7.315751144552856	25.26912504684492	0	0.9399999999999999	0	49.97822198295567	-3.952518990623197	-11.56166630672047	84.81849678839787	1.480362035549779	0	0	0	47.98460514697919	-11.67658644435888	2.260742819247	87.69397409665568	1.530548582145262	0	0	0	0	0	0	31.04925473395708	-31.04925473395708	4.350876557048088	76.42411743929219	85.64912368696886	0	0	31.04925473395708	-31.04925473395708	4.350876557048088	76.42411743929219	85.64912368684651	0	0
18.3599999999997	22.4355499383251	6.457047134864654	25.45459870401012	0	0.9399999999999999	0	51.47536131130254	-3.815787906337862	-11.72648187703775	84.75916776457125	1.47932654874201	0	0	0	49.53285398764135	-11.70862398351967	2.464713133866515	87.65708827171261	1.529904803052691	0	0	0	0	0	0	31.05035872583824	-31.05035872583824	4.350976222945041	76.42544398913404	85.64902402107711	0	0	31.05035872583824	-31.05035872583824	4.350976222945041	76.42544398913404	85.64902402095476	0	0
18.3799999999997	21.07292091992485	5.495964822018666	25.72672848727125	0	0.9399999999999999	0	53.14565269314507	-3.731506676712196	-11.78134328804218	84.93843315112134	1.48245531997217	0	0	0	51.29840953964626	-11.71023528855351	2.874097608508909	87.93806317752666	1.534808740274627	0	0	0	0	0	0	31.05391008474683	-31.05391008474683	4.351303463851555	76.42980170135159	85.64869678018741	0	0	31.05391008474683	-31.05391008474683	4.351303463851555	76.42980170135159	85.64869678006514	0	0
18.3999999999997	20.30540830828206	4.928544517267346	25.75991672506773	0	0.9399999999999999	0	54.06221961339688	-3.597539162011193	-11.85736816840765	84.83906734772596	1.480721059539031	0	0	0	52.28486622798114	-11.81151457814573	3.136402738259003	87.90324794140348	1.534201099774418	0	0	0	0	0	0	31.05501750988681	-31.05501750988681	4.35140360733428	76.43113465276743	85.64859663670983	0	0	31.05501750988681	-31.05501750988681	4.35140360733428	76.43113465276743	85.64859663658756	0	0
18.4199999999997	19.92266748071566	4.656709548531007	25.78681608955243	0	0.9399999999999999	0	54.5727327218014	-3.52328846982478	-11.24919470473967	84.85711173233943	1.481035993462032	0	0	0	52.82390310039234	-11.7858847852942	3.392079422052158	87.97632814354833	1.535476589919869	0	0	0	0	0	0	31.0563208931135	-31.0563208931135	4.351523252168402	76.43272775104838	85.64847699188181	0	0	31.0563208931135	-31.0563208931135	4.351523252168402	76.43272775104838	85.64847699175961	0	0
18.4399999999997	19.80585140933279	4.596226493257426	25.67320170880853	0	0.9399999999999999	0	54.78517803855716	-3.431004974620387	-10.71713523698623	84.85695996401421	1.481033344605057	0	0	0	52.95717126799114	-11.89254124949339	3.345491583023557	88.01912432452377	1.53622352418517	0	0	0	0	0	0	31.05758131271885	-31.05758131271885	4.351639380688869	76.43427416210844	85.64836086336732	0	0	31.05758131271885	-31.05758131271885	4.351639380688869	76.43427416210844	85.64836086324516	0	0
18.4599999999997	19.9412078001447	4.698524108556555	25.57798610863867	0	0.9399999999999999	0	54.6963883626829	-3.367030310171372	-10.14913705664403	84.77559699617868	1.479613292927133	0	0	0	52.87679614883857	-11.81283199146821	3.371838685774048	88.11818645785779	1.537952484575898	0	0	0	0	0	0	31.05905901665496	-31.05905901665496	4.35177522339027	76.43608299356229	85.64822502067288	0	0	31.05905901665496	-31.05905901665496	4.35177522339027	76.43608299356229	85.64822502055068	0	0
18.47999999999969	21.26413500278078	5.454543405545734	25.07085012046371	0	0.9399999999999999	0	53.28878348621933	-3.050560202949992	-9.419115210547707	84.83383951463311	1.480629816638816	0	0	0	51.38482183897586	-11.93462418349562	3.096435383940181	88.26630947570177	1.540537718935266	0	0	0	0	0	0	31.06057821927829	-31.06057821927829	4.351913598870413	76.43792513624201	85.64808664519983	0	0	31.06057821927829	-31.06057821927829	4.351913598870413	76.43792513624201	85.64808664507765	0	0
18.49999999999969	21.41456800663897	5.502936745235968	24.99073010113002	0	0.9399999999999999	0	53.20337322396131	-2.797284267955891	-8.89342609353257	84.71644054755163	1.478580818124804	0	0	0	51.22081242432427	-11.99964433438356	3.075819468787626	88.19438008415885	1.539282314223886	0	0	0	0	0	0	31.06190661977251	-31.06190661977251	4.352036552975678	76.43956260510275	85.64796369110088	0	0	31.06190661977251	-31.06190661977251	4.352036552975678	76.43956260510275	85.64796369097871	0	0
18.51999999999969	21.67990648354463	5.559271010873546	24.9206042581221	0	0.9399999999999999	0	52.93566641012436	-2.623518207880541	-8.77213631865312	84.55923007335693	1.475836977731485	0	0	0	51.08062988883672	-11.85444713404739	3.014609940502456	88.20872172567591	1.539532623088499	0	0	0	0	0	0	31.06339348097083	-31.06339348097083	4.352173406423523	76.44138493590586	85.64782683766011	0	0	31.06339348097083	-31.06339348097083	4.352173406423523	76.44138493590586	85.64782683753801	0	0
18.53999999999969	22.01097994821251	5.680012524473327	24.88360162920367	0	0.9399999999999999	0	52.60056078832783	-2.484783455471709	-8.676216966900709	84.4224904142781	1.473450420462505	0	0	0	50.79000504416174	-11.83312537431708	3.031974575782919	88.21110939777795	1.539574295828138	0	0	0	0	0	0	31.06466644912749	-31.06466644912749	4.352290559911944	76.44294493440523	85.64770968417766	0	0	31.06466644912749	-31.06466644912749	4.352290559911944	76.44294493440523	85.64770968405558	0	0
18.55999999999969	22.33723301653769	5.895978980137718	24.91886372426767	0	0.9399999999999999	0	52.25241781883712	-2.45529828872678	-8.536832555074119	84.24478194101629	1.470348822495394	0	0	0	50.51756744366678	-11.73938487271292	3.05905954892329	88.23495699161487	1.53999051485927	0	0	0	0	0	0	31.06596925339082	-31.06596925339082	4.352410648790687	76.44454407672191	85.64758959530512	0	0	31.06596925339082	-31.06596925339082	4.352410648790687	76.44454407672191	85.64758959518305	0	0
18.57999999999969	22.3739263413881	5.943677481527744	24.91244796647679	0	0.9399999999999999	0	52.22736394742193	-2.354180278949876	-8.387329050221682	84.01248853973684	1.466294537812411	0	0	0	50.55984956825809	-11.81727438642757	3.129944948255076	88.15858258313575	1.538657529967046	0	0	0	0	0	0	31.0679559642061	-31.0679559642061	4.352594541126007	76.44699308226951	85.64740570297928	0	0	31.0679559642061	-31.0679559642061	4.352594541126007	76.44699308226951	85.64740570285723	0	0
18.59999999999969	22.30544399569538	5.987992829046482	24.97264633149705	0	0.9399999999999999	0	52.30004307113347	-2.363895420919772	-8.276887824415569	83.98311482438103	1.465781869765908	0	0	0	50.6691739744138	-11.7980059540742	3.217726171674252	88.17777168633663	1.538992442998407	0	0	0	0	0	0	31.06879771589003	-31.06879771589003	4.352671900762042	76.44802314935379	85.64732834334723	0	0	31.06879771589003	-31.06879771589003	4.352671900762042	76.44802314935379	85.64732834322517	0	0
